<svg width="733" height="143" viewBox="0 0 733 143" fill="none" xmlns="http://www.w3.org/2000/svg">
<path d="M42.1941 30.4823C63.2109 30.4823 78.7729 46.8466 78.7729 73.7993C78.7729 100.752 63.2109 117.116 42.1941 117.116C29.5199 117.116 21.4982 110.859 17.1665 105.244H16.8457V114.71H0.000180936V2.12715e-05H16.8457V42.6753H17.1665C21.4982 36.4184 29.5199 30.4823 42.1941 30.4823ZM39.3063 103.319C54.0662 103.319 61.9274 89.8427 61.9274 73.7993C61.9274 57.756 54.0662 44.2796 39.3063 44.2796C25.5091 44.2796 17.0061 55.5099 17.0061 73.7993C17.0061 91.9283 25.5091 103.319 39.3063 103.319ZM140.131 54.2265C140.131 48.2904 136.602 43.7983 125.371 43.7983C111.895 43.7983 106.921 47.9696 106.119 58.5582H89.7551C90.5573 42.8357 100.665 30.4823 125.371 30.4823C143.5 30.4823 156.977 37.381 156.977 59.1999V98.1852C156.977 103.961 158.26 107.009 164.838 106.367V114.389C160.987 115.833 158.26 116.154 155.051 116.154C146.067 116.154 141.896 112.945 140.292 104.923H139.971C134.837 112.143 125.532 117.116 112.857 117.116C96.1724 117.116 85.9047 107.49 85.9047 93.6931C85.9047 75.7245 99.2207 70.1094 119.756 66.0985C132.43 63.692 140.131 62.0877 140.131 54.2265ZM116.547 103.8C130.505 103.8 140.131 96.9017 140.131 83.5858V71.2324C137.404 73.1576 130.826 75.0828 122.965 76.6871C109.007 79.7354 102.911 83.7462 102.911 92.0887C102.911 99.6291 107.403 103.8 116.547 103.8ZM218.81 30.4823C234.051 30.4823 246.084 39.3062 246.084 58.0769V114.71H229.078V62.8899C229.078 51.82 224.425 44.7609 212.874 44.7609C199.879 44.7609 191.536 52.6221 191.536 64.8151V114.71H174.691V32.7284H191.536V43.317H191.857C196.189 36.8997 204.692 30.4823 218.81 30.4823ZM319.083 2.12715e-05H335.929V114.71H319.083V105.244H318.762C314.431 110.859 306.409 117.116 293.735 117.116C272.718 117.116 257.156 100.752 257.156 73.7993C257.156 46.8466 272.718 30.4823 293.735 30.4823C306.409 30.4823 314.431 36.4184 318.762 42.6753H319.083V2.12715e-05ZM296.623 103.319C310.42 103.319 318.923 91.9283 318.923 73.7993C318.923 55.5099 310.42 44.2796 296.623 44.2796C281.863 44.2796 274.001 57.756 274.001 73.7993C274.001 89.8427 281.863 103.319 296.623 103.319ZM408.517 62.7294C407.876 54.3869 402.581 44.2796 388.142 44.2796C371.618 44.2796 364.559 58.3977 364.559 73.7993C364.559 89.2009 371.457 103.319 388.142 103.319C402.581 103.319 407.876 93.3722 408.517 84.2275H425.363C424.079 103.159 409.48 117.116 388.142 117.116C363.596 117.116 347.713 99.4687 347.713 73.7993C347.713 48.13 363.596 30.4823 387.982 30.4823C409.319 30.4823 423.277 44.1192 425.363 62.7294H408.517ZM487.632 54.2265C487.632 48.2904 484.103 43.7983 472.872 43.7983C459.396 43.7983 454.423 47.9696 453.62 58.5582H437.256C438.058 42.8357 448.166 30.4823 472.872 30.4823C491.001 30.4823 504.478 37.381 504.478 59.1999V98.1852C504.478 103.961 505.761 107.009 512.339 106.367V114.389C508.489 115.833 505.761 116.154 502.553 116.154C493.568 116.154 489.397 112.945 487.793 104.923H487.472C482.338 112.143 473.033 117.116 460.359 117.116C443.673 117.116 433.406 107.49 433.406 93.6931C433.406 75.7245 446.722 70.1094 467.257 66.0985C479.931 63.692 487.632 62.0877 487.632 54.2265ZM464.049 103.8C478.006 103.8 487.632 96.9017 487.632 83.5858V71.2324C484.905 73.1576 478.327 75.0828 470.466 76.6871C456.508 79.7354 450.412 83.7462 450.412 92.0887C450.412 99.6291 454.904 103.8 464.049 103.8ZM612.676 30.4823C629.201 30.4823 637.704 40.4292 637.704 58.0769V114.71H620.698V62.8899C620.698 51.82 618.452 44.7609 606.901 44.7609C595.51 44.7609 588.451 52.6221 588.451 64.8151V114.71H571.445V62.8899C571.445 51.82 569.199 44.7609 557.487 44.7609C546.257 44.7609 539.037 52.6221 539.037 64.8151V114.71H522.192V32.7284H539.037V43.317H539.358C543.69 36.8997 551.391 30.4823 563.744 30.4823C575.295 30.4823 582.194 35.7767 585.563 44.6005H585.884C591.98 36.7392 600.002 30.4823 612.676 30.4823ZM695.842 30.4823C716.698 30.4823 732.26 46.8466 732.26 73.7993C732.26 100.752 716.698 117.116 695.842 117.116C683.007 117.116 674.986 111.02 670.654 104.923H670.333V142.625H653.327V32.7284H670.333V42.3544H670.654C674.986 36.5788 683.007 30.4823 695.842 30.4823ZM692.633 103.319C707.393 103.319 715.254 89.8427 715.254 73.7993C715.254 57.756 707.393 44.2796 692.633 44.2796C678.997 44.2796 670.494 55.5099 670.494 73.7993C670.494 91.9283 678.997 103.319 692.633 103.319Z" fill="#EB5E28"/>
</svg>
